<?xml version="1.0" standalone="no"?>
<!DOCTYPE svg PUBLIC "-//W3C//DTD SVG 20010904//EN"
 "http://www.w3.org/TR/2001/REC-SVG-20010904/DTD/svg10.dtd">
<svg version="1.0" xmlns="http://www.w3.org/2000/svg"
 width="379.000000pt" height="379.000000pt" viewBox="0 0 379.000000 379.000000"
 preserveAspectRatio="xMidYMid meet">
<metadata>
Created by potrace 1.11, written by Peter Selinger 2001-2013
</metadata>
<g transform="translate(0.000000,379.000000) scale(0.100000,-0.100000)"
fill="#000000" stroke="none">
<path d="M1634 3774 c-406 -55 -785 -244 -1080 -538 -269 -270 -439 -586 -521
-971 -25 -121 -27 -146 -27 -365 0 -219 2 -244 27 -365 82 -385 252 -701 521
-971 360 -360 831 -554 1341 -554 510 0 981 194 1341 554 269 270 439 586 521
971 25 121 27 146 27 365 0 219 -2 244 -27 365 -82 385 -252 701 -521 971
-299 298 -676 484 -1092 539 -139 18 -373 18 -510 -1z m591 -254 c215 -46 440
-143 607 -263 71 -50 87 -66 82 -82 -38 -134 -630 -1903 -634 -1898 -12 14
-391 1071 -511 1423 l-117 345 -175 3 c-159 2 -175 1 -182 -15 -3 -10 -175
-468 -382 -1018 -206 -550 -378 -1006 -382 -1013 -10 -18 -95 129 -154 265
-55 128 -99 293 -117 436 -18 138 -8 413 19 538 146 678 676 1183 1358 1294
133 22 457 14 588 -15z m962 -597 c50 -62 152 -228 192 -315 107 -227 152
-436 152 -698 0 -460 -170 -864 -497 -1181 -318 -307 -700 -460 -1144 -460
-394 0 -742 123 -1045 371 -115 94 -110 81 -70 190 18 52 82 232 142 400 l110
305 420 3 421 2 62 -177 c34 -98 84 -244 112 -326 l52 -147 164 2 165 3 371
1022 c204 563 373 1023 375 1023 2 0 10 -8 18 -17z m-1576 -666 c86 -237 160
-442 164 -454 l6 -23 -330 0 c-182 0 -331 3 -331 7 0 16 323 903 329 903 3 0
76 -195 162 -433z"/>
</g>
</svg>
